<svg width="167" height="40" viewBox="0 0 167 40" fill="none" xmlns="http://www.w3.org/2000/svg">
<g clip-path="url(#clip0_11_1423)">
<path d="M24.4261 33.4602C25.1451 33.4602 25.7312 34.0572 25.7312 34.7836C25.7312 35.5099 25.1424 36.107 24.4261 36.107H24.3962L25.6037 37.6945C25.856 38.0356 26.1463 38.3988 26.6185 38.5006H25.7014C25.2292 38.3988 24.9389 38.0356 24.6784 37.6945L24.3501 37.2598L23.4709 36.107H23.1589V37.6945C23.1589 38.1677 23.2973 38.4071 23.357 38.5006H22.2336C22.2961 38.4071 22.4317 38.1594 22.4236 37.6807V34.2828C22.4317 33.8041 22.2933 33.5565 22.2336 33.463H24.4261V33.4602ZM23.1589 33.7133V35.8511H23.9458C24.5265 35.8511 24.9986 35.3696 24.9986 34.7836C24.9986 34.1976 24.5237 33.7161 23.9458 33.7161H23.1589V33.7133Z" fill="#9AA6B6"/>
<path d="M30.0105 34.682V37.4608C30.0186 37.9257 30.1488 38.1734 30.2085 38.2669L29.3077 38.498V37.7469C29.1178 38.2036 28.6809 38.498 28.1925 38.498C27.4137 38.498 26.8575 37.8707 26.8575 37.0976V35.4798C26.8575 35.0149 26.7191 34.7755 26.6594 34.682H27.5603V36.9105C27.5603 38.388 29.3077 38.388 29.3077 36.9793V35.4771C29.3077 35.0121 29.1774 34.7727 29.1178 34.6792H30.0105V34.682Z" fill="#9AA6B6"/>
<path d="M32.398 34.9296C31.7794 34.9378 31.6274 35.4413 31.9558 35.7357C32.2217 35.9751 32.6205 36.1704 32.9706 36.385C33.1849 36.5253 33.3749 36.6629 33.5132 36.8197C33.8877 37.2462 33.8795 37.879 33.3667 38.2284C33.1144 38.399 32.7725 38.498 32.3438 38.498C31.8635 38.498 31.1987 38.3742 30.9382 38.1486L31.329 37.2434C31.4592 37.6314 31.6573 38.2339 32.3519 38.2504C32.6178 38.2587 32.8783 38.1431 32.9923 37.901C33.2066 37.4278 32.7861 37.1746 32.3519 36.9105C32.0073 36.7014 31.6274 36.4923 31.3751 36.2282C30.9328 35.7797 30.9464 35.1222 31.6356 34.8113C31.8174 34.726 32.1457 34.6792 32.3926 34.6792C32.5825 34.6792 33.0113 34.748 33.2093 34.7425C33.3097 34.7342 33.3857 34.726 33.4535 34.6792V35.6312C33.307 35.2515 33.0031 34.9186 32.4008 34.9268L32.398 34.9296Z" fill="#9AA6B6"/>
<path d="M34.2405 34.8991V34.6735C34.7072 34.6818 35.2336 34.3103 35.2336 33.6445H35.4995V34.6735H36.1398V34.8991H35.4995V37.268C35.4995 37.5321 35.5076 37.8953 35.6677 38.1127C35.8142 38.3218 36.186 38.2832 36.3406 38.1209V38.2145C36.2782 38.3218 36.0883 38.5006 35.8441 38.5006C35.1033 38.5006 34.7994 37.9118 34.7994 37.2157V34.9019H34.2432L34.2405 34.8991Z" fill="#9AA6B6"/>
<path d="M37.8466 37.6944C37.8466 38.1676 37.9769 38.407 38.0366 38.5005H36.9458C37.0082 38.407 37.1357 38.1676 37.1439 37.6944V35.7217C37.1357 35.2567 37.0055 35.0174 36.9458 34.9156L37.8466 34.6845V37.6972V37.6944ZM37.9389 33.4601C37.9389 33.661 37.7408 33.8151 37.4966 33.8151C37.2524 33.8151 37.0543 33.661 37.0543 33.4601C37.0543 33.2593 37.2524 33.1052 37.4966 33.1052C37.7408 33.1052 37.9389 33.2676 37.9389 33.4601Z" fill="#9AA6B6"/>
<path d="M40.6578 34.9598C39.917 35.0065 39.567 35.7797 39.5507 36.5555C39.5426 37.3452 39.8872 38.1348 40.6958 38.1513C41.5369 38.1595 41.9032 37.7111 42.0389 36.9902L42.1013 37.8954C41.7893 38.3219 41.1408 38.4979 40.6442 38.4979C40.5058 38.4979 40.3078 38.4814 40.1775 38.4429C39.3825 38.2503 38.772 37.491 38.772 36.594C38.772 35.5403 39.5968 34.6819 40.5818 34.6819C40.9861 34.6819 41.5966 34.7369 41.9873 34.9295V35.975C41.7513 35.3862 41.3307 34.9212 40.6578 34.9598Z" fill="#9AA6B6"/>
<path d="M48.6134 33.4602V34.4672C48.6134 34.6075 48.6053 33.7381 47.8889 33.7161H46.269V35.73H47.3924C47.7967 35.7135 48.1169 35.3751 48.1169 34.9707V36.7425C48.1169 36.3408 47.7967 35.9997 47.3924 35.9832H46.269L46.2473 38.2447H47.3707C48.0436 38.2447 48.6161 37.8348 48.8603 37.2378L48.6161 38.5006H45.3411C45.4035 38.4071 45.5391 38.1594 45.531 37.6807V34.2828C45.5391 33.8041 45.4008 33.5565 45.3411 33.463H48.6161L48.6134 33.4602Z" fill="#9AA6B6"/>
<path d="M50.407 37.6945C50.407 38.1677 50.5453 38.4071 50.605 38.5006H49.5061C49.5739 38.4071 49.7042 38.1677 49.7042 37.6945V34.1398C49.7042 33.6748 49.5739 33.4354 49.5061 33.3419L50.407 33.1025V37.6945Z" fill="#9AA6B6"/>
<path d="M52.1028 36.7564C52.2167 37.4442 52.6075 38.033 53.3401 38.0797C53.7661 38.1265 54.089 38.0027 54.4092 37.7303V37.9009C54.2626 38.1403 53.6603 38.4347 53.3184 38.4814C53.2505 38.4897 53.18 38.4979 53.1122 38.4979C52.0268 38.4979 51.3186 37.5928 51.3186 36.539C51.3186 35.8732 51.6306 35.2321 52.2113 34.8992C52.4555 34.7589 52.7241 34.6819 53.0063 34.6819C53.9832 34.6819 54.6859 35.433 54.6778 36.3464C54.6778 36.4867 54.6615 36.6161 54.6316 36.7564H52.1055H52.1028ZM53.8665 36.462C53.9343 35.92 53.6982 34.9763 53.0199 34.9515C52.3253 34.9212 52.0349 35.8815 52.0729 36.462H53.8665Z" fill="#9AA6B6"/>
<path d="M57.9612 34.9462C57.9612 34.9462 57.9775 34.9627 57.9829 34.9627C58.0752 34.7784 58.1891 34.5666 58.3411 34.3354L58.8214 34.9848C58.5934 34.9848 58.4089 35.07 58.257 35.1939C58.3709 35.3177 58.4632 35.458 58.5229 35.6203C58.569 35.7524 58.5989 35.8899 58.5989 36.0385C58.5989 36.1871 58.569 36.3246 58.5229 36.4567C58.4089 36.7511 58.2027 36.9767 57.9585 37.1308C57.6763 37.3096 57.348 37.3949 57.0278 37.3949C56.7755 37.3949 56.5177 37.3399 56.2789 37.2326C55.7607 37.5875 55.9967 37.7966 56.5231 37.7966H57.3019C58.4252 37.8131 58.8214 38.3001 58.8214 38.8421C58.8295 39.4997 58.2027 40.0031 57.2557 40.0031C56.8514 40.0031 56.3006 40.0114 55.9126 39.8628C55.2098 39.607 55.0715 39.142 55.4079 38.7238C55.2315 39.2658 56.6669 39.2878 56.9491 39.2878C57.1553 39.2878 57.462 39.2658 57.6817 39.2328C58.8512 39.1007 58.7725 38.4899 57.5895 38.4982C57.215 38.4982 56.789 38.5064 56.4526 38.5064C55.2777 38.5064 55.0932 37.5297 56.0618 37.106C55.8339 36.9519 55.6331 36.7346 55.5354 36.4567C55.4812 36.3246 55.4595 36.1871 55.4595 36.0385C55.4595 35.8899 55.4812 35.7524 55.5354 35.6203C55.6413 35.3259 55.8556 35.1031 56.0917 34.9462C56.3739 34.7674 56.7022 34.6821 57.0251 34.6821C57.348 34.6821 57.6736 34.7674 57.9558 34.9462H57.9612ZM56.3739 36.7428C56.496 36.9272 56.6724 37.0592 56.8786 37.106C56.9247 37.1143 56.979 37.1225 57.0305 37.1225C57.0821 37.1225 57.1363 37.1143 57.1906 37.106C57.3887 37.0592 57.5651 36.9272 57.6953 36.7428C57.8337 36.542 57.9015 36.2944 57.9015 36.0385C57.9015 35.7826 57.8337 35.535 57.6953 35.3342C57.5651 35.1498 57.3887 35.0178 57.1906 34.971C57.1363 34.9627 57.0848 34.9545 57.0305 34.9545C56.9763 34.9545 56.9247 34.9627 56.8786 34.971C56.6724 35.0178 56.496 35.1498 56.3739 35.3342C56.2355 35.535 56.1595 35.7826 56.1595 36.0385C56.1595 36.2944 56.2355 36.542 56.3739 36.7428Z" fill="#9AA6B6"/>
<path d="M61.6999 37.9257C61.3716 38.3274 61.0514 38.498 60.4707 38.498C59.3257 38.498 58.859 37.1911 60.1641 36.5693C60.6308 36.352 61.2033 36.2447 61.6999 36.1897C61.6999 35.9723 61.6836 35.7632 61.6239 35.5404C61.5099 35.1222 61.2495 34.9681 60.989 34.9681C60.4761 34.9681 60.2021 35.5101 60.194 35.9668L59.6133 35.4083C59.9036 34.9131 60.4382 34.6792 60.9808 34.6792C61.9197 34.6792 62.3999 35.2515 62.3999 36.1979V37.469C62.4081 37.9423 62.5383 38.1816 62.598 38.2752L61.6972 38.5063V37.9257H61.6999ZM61.6999 36.4868C61.2576 36.4951 60.411 36.6491 60.1261 37.0673C59.8195 37.5323 60.1804 38.0963 60.8832 38.0963C61.3254 38.0963 61.6999 37.7469 61.6999 37.2517V36.4841V36.4868Z" fill="#9AA6B6"/>
<path d="M63.3662 38.4981C63.434 38.4046 63.5643 38.1652 63.5643 37.692V35.7111C63.5643 35.5322 63.5426 35.3864 63.5182 35.2708C63.472 35.0865 63.4042 34.9682 63.3662 34.9159L64.2671 34.6848V35.4359C64.457 34.9792 64.902 34.6848 65.3904 34.6848C66.1691 34.6848 66.7254 35.3039 66.7254 36.0852V37.6947C66.7254 38.168 66.8556 38.4073 66.9153 38.5009H65.8245C65.8869 38.4073 66.0145 38.168 66.0226 37.6947V36.2613C66.0226 34.7811 64.2671 34.7811 64.2671 36.198V37.692C64.2671 38.1652 64.4054 38.4046 64.4651 38.4981H63.3662Z" fill="#9AA6B6"/>
<path d="M69.512 34.9598C68.7713 35.0065 68.4212 35.7797 68.405 36.5555C68.3968 37.3452 68.7414 38.1348 69.55 38.1513C70.3912 38.1595 70.7575 37.7111 70.8931 36.9902L70.9555 37.8954C70.6435 38.3219 69.995 38.4979 69.4985 38.4979C69.3601 38.4979 69.162 38.4814 69.0318 38.4429C68.2367 38.2503 67.6262 37.491 67.6262 36.594C67.6262 35.5403 68.4511 34.6819 69.436 34.6819C69.8403 34.6819 70.4509 34.7369 70.8416 34.9295V35.975C70.6055 35.3862 70.1849 34.9212 69.512 34.9598Z" fill="#9AA6B6"/>
<path d="M72.5156 36.7564C72.6296 37.4442 73.0203 38.033 73.7529 38.0797C74.1789 38.1265 74.5018 38.0027 74.822 37.7303V37.9009C74.6755 38.1403 74.0731 38.4347 73.7312 38.4814C73.6634 38.4897 73.5928 38.4979 73.525 38.4979C72.4396 38.4979 71.7314 37.5928 71.7314 36.539C71.7314 35.8732 72.0435 35.2321 72.6242 34.8992C72.8684 34.7589 73.137 34.6819 73.4192 34.6819C74.396 34.6819 75.0988 35.433 75.0906 36.3464C75.0906 36.4867 75.0743 36.6161 75.0445 36.7564H72.5183H72.5156ZM74.2793 36.462C74.3472 35.92 74.1111 34.9763 73.4327 34.9515C72.7381 34.9212 72.4478 35.8815 72.4858 36.462H74.2793Z" fill="#9AA6B6"/>
<path d="M76.0998 37.7881C76.2598 37.7881 76.3901 37.8486 76.4742 37.9422C76.58 38.0742 76.58 38.3053 76.5366 38.5144C76.4606 38.8941 76.2463 39.2023 75.842 39.2655C76.0482 39.1417 76.2327 38.8941 76.1079 38.6548C76.0699 38.5695 75.9858 38.5007 75.8854 38.4539C75.747 38.3906 75.6575 38.2751 75.6575 38.143C75.6575 37.9422 75.8555 37.7881 76.0998 37.7881Z" fill="#9AA6B6"/>
<path d="M81.7869 33.4602C82.506 33.4602 83.092 34.0572 83.092 34.7836C83.092 35.5099 82.5032 36.107 81.7869 36.107H81.7571L82.9645 37.6945C83.2169 38.0356 83.5072 38.3988 83.9793 38.5006H83.0622C82.5901 38.3988 82.2997 38.0356 82.0392 37.6945L81.7109 37.2598L80.8318 36.107H80.5197V37.6945C80.5197 38.1677 80.6581 38.4071 80.7178 38.5006H79.5945C79.6569 38.4071 79.7926 38.1594 79.7844 37.6807V34.2828C79.7926 33.8041 79.6542 33.5565 79.5945 33.463H81.7869V33.4602ZM80.5197 33.7133V35.8511H81.3066C81.8873 35.8511 82.3594 35.3696 82.3594 34.7836C82.3594 34.1976 81.8846 33.7161 81.3066 33.7161H80.5197V33.7133Z" fill="#9AA6B6"/>
<path d="M87.7268 36.594C87.7268 37.6478 86.8803 38.4979 85.841 38.4979C84.8018 38.4979 83.9634 37.645 83.9634 36.594C83.9634 35.543 84.8018 34.6819 85.841 34.6819C86.8803 34.6819 87.7268 35.5403 87.7268 36.594ZM84.9619 37.6313C85.1139 37.8789 85.3445 38.0963 85.6348 38.1733C85.7027 38.1953 85.7732 38.2036 85.841 38.2036C85.917 38.2036 85.9876 38.1953 86.0554 38.1733C86.3457 38.0963 86.5737 37.8789 86.7202 37.6313C86.9101 37.3231 86.9942 36.949 86.9942 36.594C86.9942 36.2391 86.9101 35.8594 86.7202 35.5485C86.5764 35.3009 86.3457 35.0836 86.0554 35.0065C85.9876 34.9845 85.917 34.9763 85.841 34.9763C85.7732 34.9763 85.7027 34.9845 85.6348 35.0065C85.3445 35.0836 85.1166 35.3009 84.9619 35.5485C84.7801 35.8567 84.696 36.2309 84.696 36.594C84.696 36.9572 84.7801 37.3231 84.9619 37.6313Z" fill="#9AA6B6"/>
<path d="M92.1929 36.594C92.1929 37.6478 91.3463 38.4979 90.3071 38.4979C89.2679 38.4979 88.4294 37.645 88.4294 36.594C88.4294 35.543 89.2679 34.6819 90.3071 34.6819C91.3463 34.6819 92.1929 35.5403 92.1929 36.594ZM89.428 37.6313C89.5799 37.8789 89.8106 38.0963 90.1009 38.1733C90.1687 38.1953 90.2393 38.2036 90.3071 38.2036C90.3831 38.2036 90.4536 38.1953 90.5215 38.1733C90.8118 38.0963 91.0397 37.8789 91.1862 37.6313C91.3762 37.3231 91.4603 36.949 91.4603 36.594C91.4603 36.2391 91.3762 35.8594 91.1862 35.5485C91.0397 35.3009 90.8118 35.0836 90.5215 35.0065C90.4536 34.9845 90.3831 34.9763 90.3071 34.9763C90.2393 34.9763 90.1687 34.9845 90.1009 35.0065C89.8106 35.0836 89.5826 35.3009 89.428 35.5485C89.2462 35.8567 89.1621 36.2309 89.1621 36.594C89.1621 36.9572 89.2462 37.3231 89.428 37.6313Z" fill="#9AA6B6"/>
<path d="M92.6028 34.8991V34.6735C93.0695 34.6818 93.5959 34.3103 93.5959 33.6445H93.8645V34.6735H94.5049V34.8991H93.8645V37.268C93.8645 37.5321 93.8726 37.8953 94.0327 38.1127C94.1793 38.3218 94.551 38.2832 94.7057 38.1209V38.2145C94.6433 38.3218 94.4533 38.5006 94.2091 38.5006C93.4684 38.5006 93.1645 37.9118 93.1645 37.2157V34.9019H92.6082L92.6028 34.8991Z" fill="#9AA6B6"/>
<path d="M95.8481 36.7564C95.9621 37.4442 96.3528 38.033 97.0854 38.0797C97.5141 38.1265 97.8343 38.0027 98.1545 37.7303V37.9009C98.008 38.1403 97.4056 38.4347 97.0637 38.4814C96.9959 38.4897 96.9253 38.4979 96.8575 38.4979C95.7722 38.4979 95.064 37.5928 95.064 36.539C95.064 35.8732 95.376 35.2321 95.9567 34.8992C96.2009 34.7589 96.4695 34.6819 96.7517 34.6819C97.7285 34.6819 98.4313 35.433 98.4231 36.3464C98.4231 36.4867 98.4069 36.6161 98.377 36.7564H95.8481ZM97.6118 36.462C97.6797 35.92 97.4436 34.9763 96.7653 34.9515C96.0706 34.9212 95.7803 35.8815 95.8183 36.462H97.6118Z" fill="#9AA6B6"/>
<path d="M102.686 33.1025V37.4606C102.686 37.9256 102.824 38.1732 102.884 38.2667L101.983 38.4979V37.9256C101.777 38.2585 101.258 38.4979 100.737 38.4979C99.7606 38.4979 99.1338 37.6312 99.1338 36.6462C99.1338 35.8731 99.4784 35.144 100.211 34.8359C100.455 34.7341 100.678 34.6818 100.889 34.6818C101.294 34.6818 101.706 34.8221 101.98 35.2155V34.1398C101.98 33.6748 101.842 33.4354 101.782 33.3419L102.683 33.1025H102.686ZM101.983 37.1992V36.1455C101.983 35.4797 101.511 34.9542 100.876 34.9542C100.119 34.9542 99.8311 35.7053 99.8311 36.3408C99.8311 37.1305 100.197 38.0274 101.098 38.0274C101.595 38.0274 101.983 37.7247 101.983 37.1992Z" fill="#9AA6B6"/>
<path d="M106.954 37.6944C106.954 38.1676 107.084 38.407 107.144 38.5005H106.053C106.113 38.407 106.243 38.1676 106.251 37.6944V35.7217C106.243 35.2567 106.113 35.0174 106.053 34.9156L106.954 34.6845V37.6972V37.6944ZM107.043 33.4601C107.043 33.661 106.845 33.8151 106.601 33.8151C106.357 33.8151 106.159 33.661 106.159 33.4601C106.159 33.2593 106.357 33.1052 106.601 33.1052C106.845 33.1052 107.043 33.2676 107.043 33.4601Z" fill="#9AA6B6"/>
<path d="M107.934 38.4981C108.001 38.4046 108.132 38.1652 108.132 37.692V35.7111C108.132 35.5322 108.11 35.3864 108.086 35.2708C108.039 35.0865 107.972 34.9682 107.934 34.9159L108.834 34.6848V35.4359C109.024 34.9792 109.469 34.6848 109.958 34.6848C110.737 34.6848 111.293 35.3039 111.293 36.0852V37.6947C111.293 38.168 111.423 38.4073 111.483 38.5009H110.392C110.454 38.4073 110.582 38.168 110.59 37.6947V36.2613C110.59 34.7811 108.834 34.7811 108.834 36.198V37.692C108.834 38.1652 108.973 38.4046 109.033 38.4981H107.934Z" fill="#9AA6B6"/>
<path d="M114.416 34.8991V34.6735C114.883 34.6818 115.409 34.3103 115.409 33.6445H115.678V34.6735H116.318V34.8991H115.678V37.268C115.678 37.5321 115.686 37.8953 115.846 38.1127C115.992 38.3218 116.364 38.2832 116.519 38.1209V38.2145C116.456 38.3218 116.267 38.5006 116.022 38.5006C115.282 38.5006 114.978 37.9118 114.978 37.2157V34.9019H114.421L114.416 34.8991Z" fill="#9AA6B6"/>
<path d="M117.113 38.4982C117.175 38.4046 117.303 38.1653 117.311 37.692V34.1373C117.303 33.6724 117.172 33.433 117.113 33.3395L118.014 33.1001V35.4305C118.204 34.9737 118.649 34.6793 119.129 34.6793C119.908 34.6793 120.464 35.2984 120.464 36.0798V37.6893C120.464 38.1625 120.602 38.4019 120.662 38.4954H119.563C119.631 38.4019 119.761 38.1625 119.761 37.6893V36.2558C119.761 34.7756 118.014 34.7756 118.014 36.1926V37.6865C118.014 38.1598 118.144 38.3991 118.204 38.4927H117.113V38.4982Z" fill="#9AA6B6"/>
<path d="M122.168 36.7564C122.282 37.4442 122.672 38.033 123.405 38.0797C123.834 38.1265 124.154 38.0027 124.474 37.7303V37.9009C124.328 38.1403 123.725 38.4347 123.383 38.4814C123.315 38.4897 123.245 38.4979 123.177 38.4979C122.092 38.4979 121.384 37.5928 121.384 36.539C121.384 35.8732 121.696 35.2321 122.276 34.8992C122.52 34.7589 122.789 34.6819 123.071 34.6819C124.048 34.6819 124.751 35.433 124.743 36.3464C124.743 36.4867 124.726 36.6161 124.697 36.7564H122.168ZM123.931 36.462C123.999 35.92 123.763 34.9763 123.085 34.9515C122.39 34.9212 122.1 35.8815 122.138 36.462H123.931Z" fill="#9AA6B6"/>
<path d="M129.035 33.4602C128.968 33.5537 128.837 33.7931 128.837 34.2663L128.821 38.2392H130.126C130.737 38.1925 131.25 37.7908 131.477 37.2405L131.225 38.5034H127.912C127.975 38.4098 128.11 38.1622 128.102 37.6835V34.2856C128.11 33.8069 127.972 33.5593 127.912 33.4657H129.035V33.4602Z" fill="#9AA6B6"/>
<path d="M134.297 37.9257C133.968 38.3274 133.648 38.498 133.068 38.498C131.923 38.498 131.456 37.1911 132.761 36.5693C133.228 36.352 133.8 36.2447 134.297 36.1897C134.297 35.9723 134.281 35.7632 134.221 35.5404C134.107 35.1222 133.846 34.9681 133.586 34.9681C133.076 34.9681 132.799 35.5101 132.791 35.9668L132.21 35.4083C132.501 34.9131 133.035 34.6792 133.578 34.6792C134.517 34.6792 134.997 35.2515 134.997 36.1979V37.469C135.005 37.9423 135.135 38.1816 135.195 38.2752L134.294 38.5063V37.9257H134.297ZM134.297 36.4868C133.855 36.4951 133.008 36.6491 132.723 37.0673C132.416 37.5323 132.777 38.0963 133.48 38.0963C133.922 38.0963 134.297 37.7469 134.297 37.2517V36.4841V36.4868Z" fill="#9AA6B6"/>
<path d="M135.963 38.4981C136.03 38.4046 136.161 38.1652 136.161 37.692V35.7111C136.161 35.5322 136.139 35.3864 136.115 35.2708C136.068 35.0865 136.001 34.9682 135.963 34.9159L136.863 34.6848V35.4359C137.053 34.9792 137.498 34.6848 137.987 34.6848C138.766 34.6848 139.322 35.3039 139.322 36.0852V37.6947C139.322 38.168 139.452 38.4073 139.512 38.5009H138.421C138.483 38.4073 138.611 38.168 138.619 37.6947V36.2613C138.619 34.7811 136.863 34.7811 136.863 36.198V37.692C136.863 38.1652 137.002 38.4046 137.062 38.4981H135.963Z" fill="#9AA6B6"/>
<path d="M143.788 33.1025V37.4606C143.788 37.9256 143.927 38.1732 143.986 38.2667L143.085 38.4979V37.9256C142.879 38.2585 142.361 38.4979 141.84 38.4979C140.863 38.4979 140.236 37.6312 140.236 36.6462C140.236 35.8731 140.581 35.144 141.314 34.8359C141.558 34.7341 141.78 34.6818 141.992 34.6818C142.396 34.6818 142.809 34.8221 143.083 35.2155V34.1398C143.083 33.6748 142.944 33.4354 142.885 33.3419L143.785 33.1025H143.788ZM143.085 37.1992V36.1455C143.085 35.4797 142.613 34.9542 141.978 34.9542C141.221 34.9542 140.934 35.7053 140.934 36.3408C140.934 37.1305 141.3 38.0274 142.201 38.0274C142.697 38.0274 143.085 37.7247 143.085 37.1992Z" fill="#9AA6B6"/>
<path d="M16.3563 36.074H0V36.3491H16.3563V36.074Z" fill="#9AA6B6"/>
<path d="M166.171 36.074H149.814V36.3491H166.171V36.074Z" fill="#9AA6B6"/>
<path d="M4.95194 24.2216V3.04749C4.95194 2.37617 4.8217 1.76263 4.56122 1.20136C4.30073 0.642848 3.9697 0.260416 3.56812 0.0595703H18.9286L19.6558 2.12305C19.4007 1.67459 18.972 1.30041 18.3724 0.997766C17.7727 0.695122 17.0998 0.5438 16.3617 0.5438H7.75216V11.0813H15.214L15.9249 13.1448C15.6834 12.6853 15.2601 12.3084 14.6604 12.0112C14.0608 11.7141 13.3906 11.5655 12.6498 11.5655H7.75487V21.2281C7.75487 21.8995 7.88783 22.5157 8.15645 23.0743C8.42237 23.6328 8.75611 24.0152 9.15769 24.2161H4.95466L4.95194 24.2216Z" fill="#F4923B"/>
<path d="M54.9191 24.2216H51.6793L44.581 13.1998H40.9587V21.2364C40.9587 21.9077 41.0916 22.5212 41.3603 23.0743C41.6262 23.6273 41.9599 24.0097 42.3615 24.2243H38.1585V13.2026H37.3743C35.0082 13.2026 32.5797 13.3429 30.0861 13.6208C27.5925 13.9014 25.3106 14.5865 23.243 15.676C21.1727 16.7655 19.6613 18.4906 18.7008 20.8512C18.5298 21.2777 18.4023 21.6463 18.3182 21.96C18.2341 22.2736 18.1906 22.5983 18.1906 22.9339C18.1906 23.5833 18.3969 24.0125 18.8093 24.2271H16.8611L18.2069 20.7026C19.1051 18.4768 20.4726 16.793 22.3123 15.654C24.152 14.5122 26.301 13.7418 28.7647 13.3374L25.1803 3.94167L20.3559 16.5399C20.0276 16.8536 19.7129 17.1947 19.409 17.5634L24.8873 3.21807L23.6853 0.0650729H26.651L31.5839 12.966C33.6461 12.7981 35.7083 12.7156 37.7732 12.7156H47.2565C48.4585 12.7156 49.4787 12.1241 50.3226 10.9382C51.1664 9.75243 51.587 8.32175 51.587 6.64345C51.587 4.96515 51.1664 3.51796 50.3226 2.33215C49.4787 1.14634 48.4585 0.554806 47.2565 0.554806H40.9587V12.2479H38.1557V3.04749C38.1557 2.37617 38.0255 1.76538 37.765 1.20962C37.5045 0.653853 37.1681 0.274172 36.7556 0.0595703H47.2565C48.5779 0.0595703 49.7772 0.356712 50.8517 0.948243C51.9262 1.54253 52.7836 2.33215 53.4267 3.32262C54.0698 4.31309 54.3927 5.41637 54.3927 6.6352C54.3927 7.78799 54.1023 8.8445 53.5189 9.8047C52.9356 10.7677 52.1514 11.5435 51.161 12.1378C50.1706 12.7321 49.0581 13.0788 47.8208 13.1778L54.9191 24.2161V24.2216ZM35.8819 24.2216L31.9502 13.9042C30.9924 13.9812 30.0509 14.0995 29.1283 14.2563L32.9325 24.2216H35.8819Z" fill="#F4923B"/>
<path d="M78.0238 24.2212V3.45162L70.0709 19.3239L70.9988 21.2361H67.9408L59.1142 2.99766V21.2333C59.1142 21.9046 59.2444 22.5209 59.5049 23.0795C59.7654 23.638 60.0964 24.0204 60.4953 24.2212H58.5851V1.90814L57.6924 0.0620117H60.7314L69.7778 18.7351L78.0238 2.29332V0.0620117H80.8267V21.2361C80.8267 21.9074 80.9597 22.5237 81.2283 23.0822C81.4942 23.6407 81.828 24.0231 82.2295 24.224H78.0265L78.0238 24.2212Z" fill="#F4923B"/>
<path d="M86.386 24.2216V3.04749C86.386 2.37617 86.2558 1.76263 85.9953 1.20136C85.7348 0.642848 85.4038 0.260416 85.0022 0.0595703H89.189V21.2336C89.189 21.905 89.3219 22.5212 89.5905 23.0798C89.8564 23.6383 90.1902 24.0207 90.5918 24.2216H86.3887H86.386Z" fill="#F4923B"/>
<path d="M109.708 24.2216L94.7841 2.15882V21.2336C94.7841 21.905 94.917 22.5212 95.1857 23.0798C95.4516 23.6383 95.7853 24.0207 96.1869 24.2216H94.2577V1.38845L93.365 0.0623216H96.6401L109.708 19.3572V3.04749C109.708 2.37617 109.575 1.76263 109.306 1.20136C109.04 0.642848 108.706 0.260416 108.305 0.0595703H110.234V24.2188H109.705L109.708 24.2216Z" fill="#F4923B"/>
<path d="M115.759 24.2216V3.04749C115.759 2.37617 115.629 1.76263 115.368 1.20136C115.108 0.642848 114.777 0.260416 114.375 0.0595703H118.562V21.2336C118.562 21.905 118.695 22.5212 118.963 23.0798C119.229 23.6383 119.563 24.0207 119.965 24.2216H115.762H115.759Z" fill="#F4923B"/>
<path d="M131.271 24.2217V0.549416H126.029C125.288 0.549416 124.618 0.700738 124.018 1.00338C123.418 1.30603 122.99 1.6802 122.735 2.12867L123.462 0.0651855H141.88L142.591 2.12867C142.347 1.6802 141.924 1.30603 141.316 1.00338C140.708 0.700738 140.041 0.549416 139.313 0.549416H134.071V21.2365C134.071 21.9078 134.201 22.5241 134.462 23.0826C134.722 23.6411 135.053 24.0236 135.452 24.2244H131.266L131.271 24.2217Z" fill="#F4923B"/>
<path d="M152.303 24.2216V11.6398L145.367 0.0623216H148.572L154.815 10.498L159.949 3.04749C160.641 2.04051 160.985 1.27015 160.985 0.730889C160.985 0.428246 160.858 0.20539 160.603 0.0595703H162.605L155.106 10.9823V21.2336C155.106 21.905 155.238 22.5212 155.507 23.0798C155.773 23.6383 156.107 24.0207 156.508 24.2216H152.305H152.303Z" fill="#F4923B"/>
</g>
<defs>
<clipPath id="clip0_11_1423">
<rect width="166.171" height="39.938" fill="white" transform="translate(0 0.0620117)"/>
</clipPath>
</defs>
</svg>
